{"title":"St. Vincent 2014 720p HDRip x264 Pimp4003","uid":11466571,"size":1946616459,"categoryP":"video","categoryS":"hd___movies","magnet":"?xt=urn:btih:91847efb1feffbfb0c943597ddcc833dc8aaa540&amp;dn=St.+Vincent+2014+720p+HDRip+x264+Pimp4003&amp;tr=udp%3A%2F%2Ftracker.openbittorrent.com%3A80&amp;tr=udp%3A%2F%2Fopen.demonii.com%3A1337&amp;tr=udp%3A%2F%2Ftracker.coppersurfer.tk%3A6969&amp;tr=udp%3A%2F%2Fexodus.desync.com%3A6969","seeders":31,"leechers":2,"uploader":"shawnmurthy","files":-1,"time":1416038395,"description":"FOR SCREENSHOTS AND FASTER DOWNLOAD SPEEDS PLEASE VISIT MY HOME SITE\n\nPIMP THE ONE AND ONLY PIMPSTER.....PRESENTS\n\nSt. Vincent 2014 720p HDRip x264 Pimp4003\n\nENJOY\n\nPIMP4003\n\nVideo\nID                                       : 1\nFormat                                   : MPEG-4 Visual\nFormat profile                           : Simple@L3\nFormat settings, BVOP                    : No\nFormat settings, QPel                    : No\nFormat settings, GMC                     : No warppoints\nFormat settings, Matrix                  : Default (H.263)\nCodec ID                                 : 20\nDuration                                 : 1h 42mn\nBit rate                                 : 2 391 Kbps\nWidth                                    : 1 280 pixels\nHeight                                   : 536 pixels\nDisplay aspect ratio                     : 2.40:1\nFrame rate mode                          : Variable\nFrame rate                               : 59.940 fps\nMinimum frame rate                       : 59.916 fps\nMaximum frame rate                       : 60.157 fps\nColor space                              : YUV\nChroma subsampling                       : 4:2:0\nBit depth                                : 8 bits\nScan type                                : Progressive\nCompression mode                         : Lossy\nBits/(Pixel*Frame)                       : 0.058\nStream size                              : 1.71 GiB (95%)\nWriting library                          : ZJMedia MPEG Encoder\n\nAudio\nID                                       : 2\nFormat                                   : AAC\nFormat/Info                              : Advanced Audio Codec\nFormat profile                           : LC\nCodec ID                                 : 40\nDuration                                 : 1h 42mn\nBit rate mode                            : Variable\nBit rate                                 : 128 Kbps\nChannel(s)                               : 2 channels\nChannel positions                        : Front: L R\nSampling rate                            : 48.0 KHz\nCompression mode                         : Lossy\nStream size                              : 94.0 MiB (5%)","torrent":{"xt":"urn:btih:91847efb1feffbfb0c943597ddcc833dc8aaa540","amp;dn":"St.+Vincent+2014+720p+HDRip+x264+Pimp4003","amp;tr":["udp%3A%2F%2Ftracker.openbittorrent.com%3A80","udp%3A%2F%2Fopen.demonii.com%3A1337","udp%3A%2F%2Ftracker.coppersurfer.tk%3A6969","udp%3A%2F%2Fexodus.desync.com%3A6969"],"infoHash":"91847efb1feffbfb0c943597ddcc833dc8aaa540","infoHashBuffer":{"type":"Buffer","data":[145,132,126,251,31,239,251,251,12,148,53,151,221,204,131,61,200,170,165,64]},"announce":[],"urlList":[]}}